<?xml version="1.0" encoding="iso-8859-1"?>
<!-- Generator: Adobe Illustrator 19.0.0, SVG Export Plug-In . SVG Version: 6.00 Build 0)  -->
<svg version="1.1" id="Capa_1" xmlns="http://www.w3.org/2000/svg" xmlns:xlink="http://www.w3.org/1999/xlink" x="0px" y="0px"
	 viewBox="0 0 512 512" style="enable-background:new 0 0 512 512;" xml:space="preserve">
<path style="fill:#FFE17D;" d="M49.548,190.548v296.677C49.548,500.908,60.64,512,74.323,512h363.355
	c13.682,0,24.774-11.092,24.774-24.774V198.194L49.548,190.548z"/>
<path style="fill:#FFD164;" d="M455.525,176.136l-34.363-27.49H90.839l-34.363,27.49c-4.378,3.503-6.927,8.805-6.927,14.413
	c0,4.895,1.945,9.59,5.406,13.051L256,404.645l201.046-201.046c3.461-3.461,5.406-8.156,5.406-13.051
	C462.452,184.941,459.903,179.638,455.525,176.136z"/>
<path style="fill:#EDEBED;" d="M90.839,239.484l118.577,118.577l90.896,2.273l120.85-120.85V8.258c0-4.561-3.697-8.258-8.258-8.258
	H99.097c-4.561,0-8.258,3.697-8.258,8.258V239.484z"/>
<g>
	<polygon style="fill:#DBD9DC;" points="300.311,360.334 421.161,239.484 421.161,216.127 277.524,359.764 	"/>
	<polygon style="fill:#DBD9DC;" points="90.839,216.126 90.839,239.484 209.416,358.061 233.372,358.66 	"/>
</g>
<g>
	<path style="fill:#6F6571;" d="M239.484,247.742H132.129c-4.565,0-8.258-3.698-8.258-8.258s3.694-8.258,8.258-8.258h107.355
		c4.565,0,8.258,3.698,8.258,8.258S244.048,247.742,239.484,247.742z"/>
	<path style="fill:#6F6571;" d="M379.871,247.742H272.516c-4.565,0-8.258-3.698-8.258-8.258s3.694-8.258,8.258-8.258h107.355
		c4.565,0,8.258,3.698,8.258,8.258S384.435,247.742,379.871,247.742z"/>
</g>
<g>
	<path style="fill:#A5CDFF;" d="M236.75,156.903h-29.242v-16.516h24.556c4.565,0,8.258-3.698,8.258-8.258s-3.694-8.258-8.258-8.258
		h-24.556v-16.516h29.242c4.565,0,8.258-3.698,8.258-8.258c0-4.56-3.694-8.258-8.258-8.258h-37.5c-4.565,0-8.258,3.698-8.258,8.258
		v66.065c0,4.56,3.694,8.258,8.258,8.258h37.5c4.565,0,8.258-3.698,8.258-8.258S241.315,156.903,236.75,156.903z"/>
	<path style="fill:#A5CDFF;" d="M169.629,173.419c-2.919,0-5.685-1.552-7.185-4.181l-22.056-38.863v34.786
		c0,4.56-3.694,8.258-8.258,8.258s-8.258-3.698-8.258-8.258V99.097c0-3.75,2.524-7.028,6.153-7.984
		c3.573-0.952,7.427,0.649,9.29,3.907l22.056,38.863V99.097c0-4.56,3.694-8.258,8.258-8.258s8.258,3.698,8.258,8.258v66.065
		c0,3.75-2.524,7.028-6.153,7.984C171.04,173.331,170.331,173.419,169.629,173.419z"/>
	<path style="fill:#A5CDFF;" d="M304.21,173.419c-3.895,0-7.266-2.726-8.081-6.54l-5.984-28.113l-5.976,28.113
		c-0.815,3.815-4.185,6.54-8.081,6.54c-3.895,0-7.266-2.726-8.081-6.54l-14.065-66.065c-0.944-4.46,1.903-8.847,6.363-9.794
		c4.419-0.964,8.839,1.891,9.798,6.359l5.984,28.113l5.976-28.113c0.815-3.815,4.185-6.54,8.081-6.54
		c3.895,0,7.266,2.726,8.081,6.54l5.984,28.121l5.984-28.121c0.96-4.468,5.331-7.319,9.798-6.359
		c4.46,0.948,7.306,5.335,6.363,9.794l-14.065,66.065C311.476,170.694,308.105,173.419,304.21,173.419z"/>
	<path style="fill:#A5CDFF;" d="M361.121,173.419c-14.895,0-27.008-10.185-27.008-22.71c0-4.56,3.694-8.258,8.258-8.258
		s8.258,3.698,8.258,8.258c0,2.923,4.484,6.194,10.492,6.194s10.492-3.27,10.492-6.194c0-3.694-0.895-6.262-13.339-10.827
		c-9.032-3.319-24.161-8.871-24.161-26.335c0-12.524,12.113-22.71,27.008-22.71s27.008,10.185,27.008,22.71
		c0,4.56-3.694,8.258-8.258,8.258s-8.258-3.698-8.258-8.258c0-2.923-4.484-6.194-10.492-6.194s-10.492,3.27-10.492,6.194
		c0,3.694,0.895,6.262,13.339,10.827c9.032,3.319,24.161,8.871,24.161,26.335C388.129,163.234,376.016,173.419,361.121,173.419z"/>
</g>
<g>
	<path style="fill:#8CB4EB;" d="M379.871,66.065H132.129c-4.565,0-8.258-3.698-8.258-8.258s3.694-8.258,8.258-8.258h247.742
		c4.565,0,8.258,3.698,8.258,8.258S384.435,66.065,379.871,66.065z"/>
	<path style="fill:#8CB4EB;" d="M379.871,214.71H132.129c-4.565,0-8.258-3.698-8.258-8.258s3.694-8.258,8.258-8.258h247.742
		c4.565,0,8.258,3.698,8.258,8.258S384.435,214.71,379.871,214.71z"/>
</g>
<path style="fill:#FFD164;" d="M256,404.645l-61.227-61.227L49.678,488.513C50.361,501.584,61.081,512,74.323,512h363.355
	c13.241,0,23.961-10.416,24.644-23.487L317.227,343.418L256,404.645z"/>
<path style="fill:#FFE17D;" d="M437.677,512c6.841,0,13.035-2.773,17.518-7.256l-164.16-164.16c-19.35-19.35-50.722-19.35-70.072,0
	l-164.16,164.16c4.484,4.483,10.678,7.256,17.52,7.256H437.677z"/>
<g>
	<path style="fill:#6F6571;" d="M247.742,272.516c0-4.56-3.694-8.258-8.258-8.258H132.129c-4.565,0-8.258,3.698-8.258,8.258
		l8.258,8.258h107.355C244.048,280.774,247.742,277.077,247.742,272.516z"/>
	<path style="fill:#6F6571;" d="M379.871,264.258H272.516c-4.565,0-8.258,3.698-8.258,8.258s3.694,8.258,8.258,8.258h107.355
		l8.258-8.258C388.129,267.956,384.435,264.258,379.871,264.258z"/>
	<path style="fill:#6F6571;" d="M363.355,297.29h-90.839c-4.565,0-8.258,3.698-8.258,8.258s3.694,8.258,8.258,8.258h74.323
		L363.355,297.29z"/>
	<path style="fill:#6F6571;" d="M239.484,297.29h-90.839l16.516,16.516h74.323c4.565,0,8.258-3.698,8.258-8.258
		C247.742,300.988,244.048,297.29,239.484,297.29z"/>
</g>
<g>
</g>
<g>
</g>
<g>
</g>
<g>
</g>
<g>
</g>
<g>
</g>
<g>
</g>
<g>
</g>
<g>
</g>
<g>
</g>
<g>
</g>
<g>
</g>
<g>
</g>
<g>
</g>
<g>
</g>
</svg>
